<svg xmlns="http://www.w3.org/2000/svg" width="124" height="124" viewBox="0 0 184.2 184.2">
    <g id="icon" transform="translate(416.485 37.21)">
        <path id="パス_1467"
              d="M-232.285,54.89a91.385,91.385,0,0,0-21.4-59,1.679,1.679,0,0,1-.2-1.8,15.339,15.339,0,0,0,1.5-10.2,15.639,15.639,0,0,0-13-12.4,15.519,15.519,0,0,0-11.8,3.1,1.651,1.651,0,0,1-1.9.1,91.352,91.352,0,0,0-45.3-11.9,91.352,91.352,0,0,0-45.3,11.9,1.857,1.857,0,0,1-1.9-.1,15.225,15.225,0,0,0-11.8-3.1,15.518,15.518,0,0,0-13,12.4,15.246,15.246,0,0,0,1.5,10.2,1.679,1.679,0,0,1-.2,1.8,91.586,91.586,0,0,0-21.4,59,91.936,91.936,0,0,0,34.4,71.8c-.2-2.2-.4-4.4-.4-6.6a58.084,58.084,0,0,1,58.1-58.1,58.084,58.084,0,0,1,58.1,58.1,48.725,48.725,0,0,1-.4,6.6A92.246,92.246,0,0,0-232.285,54.89Z"
              fill="#f20"/>
        <path id="パス_1468"
              d="M-324.485,61.99a58.084,58.084,0,0,0-58.1,58.1,48.725,48.725,0,0,0,.4,6.6,91.856,91.856,0,0,0,57.7,20.3,91.647,91.647,0,0,0,57.7-20.3c.2-2.2.4-4.4.4-6.6A58.02,58.02,0,0,0-324.485,61.99Z"
              fill="#fff"/>
        <circle id="楕円形_79" cx="58.1" cy="58.1" r="58.1" transform="translate(-382.385 -3.21)" fill="#ff7a66"/>
        <path id="パス_1469"
              d="M-283.585-2.61a15.635,15.635,0,0,0-19.5.1,15.971,15.971,0,0,0-5.4,8.5,1.687,1.687,0,0,1-2.4,1.1,30.87,30.87,0,0,0-13.6-3.1,30.87,30.87,0,0,0-13.6,3.1,1.658,1.658,0,0,1-2.4-1.1,15.971,15.971,0,0,0-5.4-8.5,15.771,15.771,0,0,0-19.5-.1,15.545,15.545,0,0,0-1.3,23.2,15.982,15.982,0,0,0,10.5,4.6,1.724,1.724,0,0,1,1.6,2.1,33.329,33.329,0,0,0-1,7.8v14.6a1.72,1.72,0,0,0,2.2,1.6l1.3-.4a1.674,1.674,0,0,1,1.9.8,25.22,25.22,0,0,0,21.2,11.7h9.3a25.22,25.22,0,0,0,21.2-11.7,1.819,1.819,0,0,1,1.9-.8l1.3.4a1.72,1.72,0,0,0,2.2-1.6V35.09a28.772,28.772,0,0,0-1-7.8,1.673,1.673,0,0,1,1.6-2.1,15.076,15.076,0,0,0,10.5-4.6A15.719,15.719,0,0,0-283.585-2.61Z"
              fill="#fff"/>
        <path id="パス_1470"
              d="M-355.485,3.89a5.688,5.688,0,0,0-5.6,4.7.846.846,0,0,0,.8,1h9.5a.846.846,0,0,0,.8-1A5.508,5.508,0,0,0-355.485,3.89Z"
              fill="#f20"/>
        <path id="パス_1471"
              d="M-293.085,3.89a5.688,5.688,0,0,0-5.6,4.7.846.846,0,0,0,.8,1h9.5a.846.846,0,0,0,.8-1A5.434,5.434,0,0,0-293.085,3.89Z"
              fill="#f20"/>
        <path id="パス_1472"
              d="M-318.985,26.59a2.842,2.842,0,0,1,3,2.8h0a1.367,1.367,0,0,0,1.4,1.4h3.4a.9.9,0,0,0,.9-.9,14.2,14.2,0,0,0-14.1-13.3h0a14.135,14.135,0,0,0-14.1,13.3.9.9,0,0,0,.9.9h3.4a1.367,1.367,0,0,0,1.4-1.4h0a2.842,2.842,0,0,1,3-2.8,3.031,3.031,0,0,1,2.7,3v13.1a1.621,1.621,0,0,1-1.2,1.6l-8.8,2.5a.885.885,0,0,0-.4,1.4,13.432,13.432,0,0,0,3.1,2.2l.2-.9a1.49,1.49,0,0,1,1.2-1.2,1.537,1.537,0,0,1,1.7,1.2l.3,1.5a.849.849,0,0,0,.7.7,16.413,16.413,0,0,0,2.3.2h7.8a17.852,17.852,0,0,0,2.3-.2.988.988,0,0,0,.7-.7l.3-1.5a1.48,1.48,0,0,1,1.7-1.2,1.49,1.49,0,0,1,1.2,1.2l.2.9a13.432,13.432,0,0,0,3.1-2.2.8.8,0,0,0-.4-1.4l-8.8-2.5a1.712,1.712,0,0,1-1.2-1.6V29.59A2.257,2.257,0,0,1-318.985,26.59Z"
              fill="#f20"/>
        <path id="パス_1473"
              d="M-300.185,116.39l-1.3-.2-9.3-1.6,5.5-7.8.8-1.1a3.077,3.077,0,0,0-.4-4.1l-.8-.8a3.319,3.319,0,0,0-4.1-.4l-1.1.8-7.8,5.5-1.6-9.3-.2-1.3a3.221,3.221,0,0,0-3.2-2.7h-1.2a3.221,3.221,0,0,0-3.2,2.7l-.2,1.3-1.6,9.3-7.8-5.5-1.1-.8a3.077,3.077,0,0,0-4.1.4l-.8.8a3.319,3.319,0,0,0-.4,4.1l.8,1.1,5.5,7.8-9.3,1.6-1.3.2a3.221,3.221,0,0,0-2.7,3.2v1.2a3.221,3.221,0,0,0,2.7,3.2l1.3.2,9.3,1.6-5.5,7.8-.8,1.1a3.077,3.077,0,0,0,.4,4.1l.8.8a3.319,3.319,0,0,0,4.1.4l1.1-.8,7.8-5.5,1.6,9.3.2,1.3a3.221,3.221,0,0,0,3.2,2.7h1.2a3.221,3.221,0,0,0,3.2-2.7l.2-1.3,1.6-9.3,7.8,5.5,1.1.8a3.077,3.077,0,0,0,4.1-.4l.8-.8a3.319,3.319,0,0,0,.4-4.1l-.8-1.1-5.5-7.8,9.3-1.6,1.3-.2a3.221,3.221,0,0,0,2.7-3.2v-1.2A3.33,3.33,0,0,0-300.185,116.39Z"
              fill="#f20"/>
    </g>
</svg>
